<mxfile host="Electron" modified="2024-05-04T00:20:07.005Z" agent="Mozilla/5.0 (Windows NT 10.0; Win64; x64) AppleWebKit/537.36 (KHTML, like Gecko) draw.io/24.2.5 Chrome/120.0.6099.109 Electron/28.1.0 Safari/537.36" etag="kSwdAoEezSiuRzcZMrKY" version="24.2.5" type="device">
  <diagram name="Страница — 1" id="rWsW5qR_6zvjoQNaY0E8">
    <mxGraphModel dx="1674" dy="844" grid="1" gridSize="10" guides="1" tooltips="1" connect="1" arrows="1" fold="1" page="1" pageScale="1" pageWidth="827" pageHeight="1169" math="0" shadow="0">
      <root>
        <mxCell id="0" />
        <mxCell id="1" parent="0" />
        <mxCell id="SXOQJgNMga2pUW0CT-T7-82" style="edgeStyle=orthogonalEdgeStyle;rounded=0;orthogonalLoop=1;jettySize=auto;html=1;exitX=0.5;exitY=1;exitDx=0;exitDy=0;entryX=0.5;entryY=0;entryDx=0;entryDy=0;" edge="1" parent="1" source="SXOQJgNMga2pUW0CT-T7-1" target="SXOQJgNMga2pUW0CT-T7-3">
          <mxGeometry relative="1" as="geometry" />
        </mxCell>
        <mxCell id="SXOQJgNMga2pUW0CT-T7-1" value="начало" style="rounded=1;whiteSpace=wrap;html=1;arcSize=50;" vertex="1" parent="1">
          <mxGeometry x="50" y="20" width="100" height="50" as="geometry" />
        </mxCell>
        <mxCell id="SXOQJgNMga2pUW0CT-T7-85" style="edgeStyle=orthogonalEdgeStyle;rounded=0;orthogonalLoop=1;jettySize=auto;html=1;exitX=0.5;exitY=1;exitDx=0;exitDy=0;entryX=0.5;entryY=0;entryDx=0;entryDy=0;" edge="1" parent="1" source="SXOQJgNMga2pUW0CT-T7-2" target="SXOQJgNMga2pUW0CT-T7-5">
          <mxGeometry relative="1" as="geometry" />
        </mxCell>
        <mxCell id="SXOQJgNMga2pUW0CT-T7-2" value="full" style="shape=process;whiteSpace=wrap;html=1;backgroundOutline=1;" vertex="1" parent="1">
          <mxGeometry x="50" y="160" width="100" height="50" as="geometry" />
        </mxCell>
        <mxCell id="SXOQJgNMga2pUW0CT-T7-84" style="edgeStyle=orthogonalEdgeStyle;rounded=0;orthogonalLoop=1;jettySize=auto;html=1;exitX=0.5;exitY=1;exitDx=0;exitDy=0;entryX=0.5;entryY=0;entryDx=0;entryDy=0;" edge="1" parent="1" source="SXOQJgNMga2pUW0CT-T7-3" target="SXOQJgNMga2pUW0CT-T7-2">
          <mxGeometry relative="1" as="geometry" />
        </mxCell>
        <mxCell id="SXOQJgNMga2pUW0CT-T7-3" value="Ввод:&lt;br&gt;&lt;div&gt;A&lt;/div&gt;" style="shape=parallelogram;perimeter=parallelogramPerimeter;whiteSpace=wrap;html=1;fixedSize=1;" vertex="1" parent="1">
          <mxGeometry x="50" y="90" width="100" height="50" as="geometry" />
        </mxCell>
        <mxCell id="SXOQJgNMga2pUW0CT-T7-87" style="edgeStyle=orthogonalEdgeStyle;rounded=0;orthogonalLoop=1;jettySize=auto;html=1;exitX=0.5;exitY=1;exitDx=0;exitDy=0;entryX=0.5;entryY=0;entryDx=0;entryDy=0;" edge="1" parent="1" source="SXOQJgNMga2pUW0CT-T7-4" target="SXOQJgNMga2pUW0CT-T7-9">
          <mxGeometry relative="1" as="geometry" />
        </mxCell>
        <mxCell id="SXOQJgNMga2pUW0CT-T7-4" value="WriteAD" style="shape=process;whiteSpace=wrap;html=1;backgroundOutline=1;" vertex="1" parent="1">
          <mxGeometry x="50" y="300" width="100" height="50" as="geometry" />
        </mxCell>
        <mxCell id="SXOQJgNMga2pUW0CT-T7-86" style="edgeStyle=orthogonalEdgeStyle;rounded=0;orthogonalLoop=1;jettySize=auto;html=1;exitX=0.5;exitY=1;exitDx=0;exitDy=0;entryX=0.5;entryY=0;entryDx=0;entryDy=0;" edge="1" parent="1" source="SXOQJgNMga2pUW0CT-T7-5" target="SXOQJgNMga2pUW0CT-T7-4">
          <mxGeometry relative="1" as="geometry" />
        </mxCell>
        <mxCell id="SXOQJgNMga2pUW0CT-T7-5" value="Ввод:&lt;br&gt;&lt;div&gt;A&lt;/div&gt;" style="shape=parallelogram;perimeter=parallelogramPerimeter;whiteSpace=wrap;html=1;fixedSize=1;" vertex="1" parent="1">
          <mxGeometry x="50" y="230" width="100" height="50" as="geometry" />
        </mxCell>
        <mxCell id="SXOQJgNMga2pUW0CT-T7-88" style="edgeStyle=orthogonalEdgeStyle;rounded=0;orthogonalLoop=1;jettySize=auto;html=1;exitX=0.5;exitY=1;exitDx=0;exitDy=0;entryX=0.5;entryY=0;entryDx=0;entryDy=0;" edge="1" parent="1" source="SXOQJgNMga2pUW0CT-T7-9" target="SXOQJgNMga2pUW0CT-T7-17">
          <mxGeometry relative="1" as="geometry" />
        </mxCell>
        <mxCell id="SXOQJgNMga2pUW0CT-T7-9" value="flag = true" style="rounded=0;whiteSpace=wrap;html=1;" vertex="1" parent="1">
          <mxGeometry x="50" y="390" width="100" height="50" as="geometry" />
        </mxCell>
        <mxCell id="SXOQJgNMga2pUW0CT-T7-10" value="" style="endArrow=none;dashed=1;html=1;rounded=0;exitX=1;exitY=0.5;exitDx=0;exitDy=0;" edge="1" parent="1" source="SXOQJgNMga2pUW0CT-T7-9">
          <mxGeometry width="50" height="50" relative="1" as="geometry">
            <mxPoint x="300" y="410" as="sourcePoint" />
            <mxPoint x="180" y="415" as="targetPoint" />
          </mxGeometry>
        </mxCell>
        <mxCell id="SXOQJgNMga2pUW0CT-T7-11" value="" style="strokeWidth=2;html=1;shape=mxgraph.flowchart.annotation_1;align=left;pointerEvents=1;" vertex="1" parent="1">
          <mxGeometry x="180" y="390" width="20" height="50" as="geometry" />
        </mxCell>
        <mxCell id="SXOQJgNMga2pUW0CT-T7-12" value="flag - логический тип данных" style="text;html=1;align=center;verticalAlign=middle;whiteSpace=wrap;rounded=0;" vertex="1" parent="1">
          <mxGeometry x="190" y="400" width="100" height="30" as="geometry" />
        </mxCell>
        <mxCell id="SXOQJgNMga2pUW0CT-T7-19" style="edgeStyle=orthogonalEdgeStyle;rounded=0;orthogonalLoop=1;jettySize=auto;html=1;exitX=0.5;exitY=1;exitDx=0;exitDy=0;entryX=0.5;entryY=0;entryDx=0;entryDy=0;" edge="1" parent="1" source="SXOQJgNMga2pUW0CT-T7-13" target="SXOQJgNMga2pUW0CT-T7-18">
          <mxGeometry relative="1" as="geometry">
            <Array as="points">
              <mxPoint x="100" y="630" />
              <mxPoint x="300" y="630" />
              <mxPoint x="300" y="40" />
              <mxPoint x="360" y="40" />
            </Array>
          </mxGeometry>
        </mxCell>
        <mxCell id="SXOQJgNMga2pUW0CT-T7-80" style="edgeStyle=orthogonalEdgeStyle;rounded=0;orthogonalLoop=1;jettySize=auto;html=1;exitX=0.5;exitY=1;exitDx=0;exitDy=0;entryX=0.5;entryY=0;entryDx=0;entryDy=0;" edge="1" parent="1" source="SXOQJgNMga2pUW0CT-T7-13" target="SXOQJgNMga2pUW0CT-T7-58">
          <mxGeometry relative="1" as="geometry">
            <Array as="points">
              <mxPoint x="100" y="680" />
              <mxPoint x="290" y="680" />
            </Array>
          </mxGeometry>
        </mxCell>
        <mxCell id="SXOQJgNMga2pUW0CT-T7-89" style="edgeStyle=orthogonalEdgeStyle;rounded=0;orthogonalLoop=1;jettySize=auto;html=1;exitX=0.5;exitY=1;exitDx=0;exitDy=0;entryX=0.5;entryY=0;entryDx=0;entryDy=0;" edge="1" parent="1" source="SXOQJgNMga2pUW0CT-T7-13" target="SXOQJgNMga2pUW0CT-T7-77">
          <mxGeometry relative="1" as="geometry">
            <Array as="points">
              <mxPoint x="100" y="760" />
              <mxPoint x="170" y="760" />
            </Array>
          </mxGeometry>
        </mxCell>
        <mxCell id="SXOQJgNMga2pUW0CT-T7-116" style="edgeStyle=orthogonalEdgeStyle;rounded=0;orthogonalLoop=1;jettySize=auto;html=1;exitX=0.5;exitY=1;exitDx=0;exitDy=0;entryX=0.5;entryY=0;entryDx=0;entryDy=0;" edge="1" parent="1" source="SXOQJgNMga2pUW0CT-T7-13" target="SXOQJgNMga2pUW0CT-T7-117">
          <mxGeometry relative="1" as="geometry">
            <mxPoint x="100" y="1382" as="targetPoint" />
            <Array as="points">
              <mxPoint x="100" y="1420" />
            </Array>
          </mxGeometry>
        </mxCell>
        <mxCell id="SXOQJgNMga2pUW0CT-T7-121" style="edgeStyle=orthogonalEdgeStyle;rounded=0;orthogonalLoop=1;jettySize=auto;html=1;exitX=0.5;exitY=1;exitDx=0;exitDy=0;" edge="1" parent="1" source="SXOQJgNMga2pUW0CT-T7-13">
          <mxGeometry relative="1" as="geometry">
            <mxPoint x="100" y="1590" as="targetPoint" />
            <Array as="points">
              <mxPoint x="100" y="1110" />
              <mxPoint x="30" y="1110" />
              <mxPoint x="30" y="1590" />
            </Array>
          </mxGeometry>
        </mxCell>
        <mxCell id="SXOQJgNMga2pUW0CT-T7-13" value="Оператор выбора" style="rhombus;whiteSpace=wrap;html=1;" vertex="1" parent="1">
          <mxGeometry x="50" y="530" width="100" height="60" as="geometry" />
        </mxCell>
        <mxCell id="SXOQJgNMga2pUW0CT-T7-81" style="edgeStyle=orthogonalEdgeStyle;rounded=0;orthogonalLoop=1;jettySize=auto;html=1;exitX=0.5;exitY=1;exitDx=0;exitDy=0;entryX=0.5;entryY=0;entryDx=0;entryDy=0;" edge="1" parent="1" source="SXOQJgNMga2pUW0CT-T7-17" target="SXOQJgNMga2pUW0CT-T7-13">
          <mxGeometry relative="1" as="geometry" />
        </mxCell>
        <mxCell id="SXOQJgNMga2pUW0CT-T7-17" value="Ввод:&lt;br&gt;&lt;div&gt;b&lt;br&gt;&lt;/div&gt;" style="shape=parallelogram;perimeter=parallelogramPerimeter;whiteSpace=wrap;html=1;fixedSize=1;" vertex="1" parent="1">
          <mxGeometry x="50" y="460" width="100" height="50" as="geometry" />
        </mxCell>
        <mxCell id="SXOQJgNMga2pUW0CT-T7-24" style="edgeStyle=orthogonalEdgeStyle;rounded=0;orthogonalLoop=1;jettySize=auto;html=1;exitX=0.5;exitY=1;exitDx=0;exitDy=0;entryX=0.5;entryY=0;entryDx=0;entryDy=0;" edge="1" parent="1" source="SXOQJgNMga2pUW0CT-T7-18" target="SXOQJgNMga2pUW0CT-T7-20">
          <mxGeometry relative="1" as="geometry" />
        </mxCell>
        <mxCell id="SXOQJgNMga2pUW0CT-T7-29" style="edgeStyle=orthogonalEdgeStyle;rounded=0;orthogonalLoop=1;jettySize=auto;html=1;exitX=0.5;exitY=1;exitDx=0;exitDy=0;entryX=0.5;entryY=0;entryDx=0;entryDy=0;" edge="1" parent="1" source="SXOQJgNMga2pUW0CT-T7-18" target="SXOQJgNMga2pUW0CT-T7-27">
          <mxGeometry relative="1" as="geometry">
            <Array as="points">
              <mxPoint x="360" y="380" />
              <mxPoint x="460" y="380" />
            </Array>
          </mxGeometry>
        </mxCell>
        <mxCell id="SXOQJgNMga2pUW0CT-T7-38" style="edgeStyle=orthogonalEdgeStyle;rounded=0;orthogonalLoop=1;jettySize=auto;html=1;exitX=0.5;exitY=1;exitDx=0;exitDy=0;" edge="1" parent="1" source="SXOQJgNMga2pUW0CT-T7-18" target="SXOQJgNMga2pUW0CT-T7-34">
          <mxGeometry relative="1" as="geometry">
            <Array as="points">
              <mxPoint x="360" y="630" />
              <mxPoint x="460" y="630" />
            </Array>
          </mxGeometry>
        </mxCell>
        <mxCell id="SXOQJgNMga2pUW0CT-T7-44" style="edgeStyle=orthogonalEdgeStyle;rounded=0;orthogonalLoop=1;jettySize=auto;html=1;exitX=0.5;exitY=1;exitDx=0;exitDy=0;entryX=0.5;entryY=0;entryDx=0;entryDy=0;" edge="1" parent="1" source="SXOQJgNMga2pUW0CT-T7-18" target="SXOQJgNMga2pUW0CT-T7-40">
          <mxGeometry relative="1" as="geometry">
            <Array as="points">
              <mxPoint x="360" y="880" />
              <mxPoint x="460" y="880" />
            </Array>
          </mxGeometry>
        </mxCell>
        <mxCell id="SXOQJgNMga2pUW0CT-T7-57" style="edgeStyle=orthogonalEdgeStyle;rounded=0;orthogonalLoop=1;jettySize=auto;html=1;exitX=0.5;exitY=1;exitDx=0;exitDy=0;" edge="1" parent="1" source="SXOQJgNMga2pUW0CT-T7-18">
          <mxGeometry relative="1" as="geometry">
            <mxPoint x="600" y="1130" as="targetPoint" />
            <Array as="points">
              <mxPoint x="360" y="1130" />
            </Array>
          </mxGeometry>
        </mxCell>
        <mxCell id="SXOQJgNMga2pUW0CT-T7-18" value="Оператор выбора" style="rhombus;whiteSpace=wrap;html=1;" vertex="1" parent="1">
          <mxGeometry x="310" y="60" width="100" height="60" as="geometry" />
        </mxCell>
        <mxCell id="SXOQJgNMga2pUW0CT-T7-25" style="edgeStyle=orthogonalEdgeStyle;rounded=0;orthogonalLoop=1;jettySize=auto;html=1;exitX=0.5;exitY=1;exitDx=0;exitDy=0;entryX=0.5;entryY=0;entryDx=0;entryDy=0;" edge="1" parent="1" source="SXOQJgNMga2pUW0CT-T7-20" target="SXOQJgNMga2pUW0CT-T7-23">
          <mxGeometry relative="1" as="geometry" />
        </mxCell>
        <mxCell id="SXOQJgNMga2pUW0CT-T7-20" value="TakeNumber" style="shape=process;whiteSpace=wrap;html=1;backgroundOutline=1;" vertex="1" parent="1">
          <mxGeometry x="410" y="160" width="100" height="50" as="geometry" />
        </mxCell>
        <mxCell id="SXOQJgNMga2pUW0CT-T7-50" style="edgeStyle=orthogonalEdgeStyle;rounded=0;orthogonalLoop=1;jettySize=auto;html=1;exitX=0.5;exitY=1;exitDx=0;exitDy=0;entryX=0.5;entryY=0;entryDx=0;entryDy=0;" edge="1" parent="1" source="SXOQJgNMga2pUW0CT-T7-21" target="SXOQJgNMga2pUW0CT-T7-45">
          <mxGeometry relative="1" as="geometry">
            <Array as="points">
              <mxPoint x="460" y="370" />
              <mxPoint x="600" y="370" />
              <mxPoint x="600" y="1150" />
              <mxPoint x="460" y="1150" />
            </Array>
          </mxGeometry>
        </mxCell>
        <mxCell id="SXOQJgNMga2pUW0CT-T7-21" value="AddFirst" style="shape=process;whiteSpace=wrap;html=1;backgroundOutline=1;" vertex="1" parent="1">
          <mxGeometry x="410" y="300" width="100" height="50" as="geometry" />
        </mxCell>
        <mxCell id="SXOQJgNMga2pUW0CT-T7-26" style="edgeStyle=orthogonalEdgeStyle;rounded=0;orthogonalLoop=1;jettySize=auto;html=1;exitX=0.5;exitY=1;exitDx=0;exitDy=0;entryX=0.5;entryY=0;entryDx=0;entryDy=0;" edge="1" parent="1" source="SXOQJgNMga2pUW0CT-T7-23" target="SXOQJgNMga2pUW0CT-T7-21">
          <mxGeometry relative="1" as="geometry" />
        </mxCell>
        <mxCell id="SXOQJgNMga2pUW0CT-T7-23" value="Ввод:&lt;br&gt;&lt;div&gt;&lt;span style=&quot;background-color: initial;&quot;&gt;A,&lt;/span&gt;&lt;span style=&quot;background-color: initial;&quot;&gt;TakeNumber&lt;/span&gt;&lt;br&gt;&lt;/div&gt;" style="shape=parallelogram;perimeter=parallelogramPerimeter;whiteSpace=wrap;html=1;fixedSize=1;" vertex="1" parent="1">
          <mxGeometry x="410" y="230" width="100" height="50" as="geometry" />
        </mxCell>
        <mxCell id="SXOQJgNMga2pUW0CT-T7-30" style="edgeStyle=orthogonalEdgeStyle;rounded=0;orthogonalLoop=1;jettySize=auto;html=1;exitX=0.5;exitY=1;exitDx=0;exitDy=0;entryX=0.5;entryY=0;entryDx=0;entryDy=0;" edge="1" parent="1" source="SXOQJgNMga2pUW0CT-T7-27" target="SXOQJgNMga2pUW0CT-T7-28">
          <mxGeometry relative="1" as="geometry" />
        </mxCell>
        <mxCell id="SXOQJgNMga2pUW0CT-T7-27" value="Ввод:&lt;br&gt;&lt;div&gt;p&lt;/div&gt;" style="shape=parallelogram;perimeter=parallelogramPerimeter;whiteSpace=wrap;html=1;fixedSize=1;" vertex="1" parent="1">
          <mxGeometry x="410" y="400" width="100" height="50" as="geometry" />
        </mxCell>
        <mxCell id="SXOQJgNMga2pUW0CT-T7-32" style="edgeStyle=orthogonalEdgeStyle;rounded=0;orthogonalLoop=1;jettySize=auto;html=1;exitX=0.5;exitY=1;exitDx=0;exitDy=0;entryX=0.5;entryY=0;entryDx=0;entryDy=0;" edge="1" parent="1" source="SXOQJgNMga2pUW0CT-T7-28" target="SXOQJgNMga2pUW0CT-T7-31">
          <mxGeometry relative="1" as="geometry" />
        </mxCell>
        <mxCell id="SXOQJgNMga2pUW0CT-T7-28" value="Ввод:&lt;br&gt;&lt;div&gt;A,&lt;/div&gt;&lt;div&gt;TakeNumber,&lt;/div&gt;&lt;div&gt;p&lt;br&gt;&lt;/div&gt;" style="shape=parallelogram;perimeter=parallelogramPerimeter;whiteSpace=wrap;html=1;fixedSize=1;" vertex="1" parent="1">
          <mxGeometry x="410" y="470" width="100" height="60" as="geometry" />
        </mxCell>
        <mxCell id="SXOQJgNMga2pUW0CT-T7-51" style="edgeStyle=orthogonalEdgeStyle;rounded=0;orthogonalLoop=1;jettySize=auto;html=1;exitX=0.5;exitY=1;exitDx=0;exitDy=0;" edge="1" parent="1" source="SXOQJgNMga2pUW0CT-T7-31">
          <mxGeometry relative="1" as="geometry">
            <mxPoint x="600" y="620" as="targetPoint" />
            <Array as="points">
              <mxPoint x="460" y="620" />
            </Array>
          </mxGeometry>
        </mxCell>
        <mxCell id="SXOQJgNMga2pUW0CT-T7-31" value="AddBefore" style="shape=process;whiteSpace=wrap;html=1;backgroundOutline=1;" vertex="1" parent="1">
          <mxGeometry x="410" y="550" width="100" height="50" as="geometry" />
        </mxCell>
        <mxCell id="SXOQJgNMga2pUW0CT-T7-33" style="edgeStyle=orthogonalEdgeStyle;rounded=0;orthogonalLoop=1;jettySize=auto;html=1;exitX=0.5;exitY=1;exitDx=0;exitDy=0;entryX=0.5;entryY=0;entryDx=0;entryDy=0;" edge="1" parent="1" source="SXOQJgNMga2pUW0CT-T7-34" target="SXOQJgNMga2pUW0CT-T7-36">
          <mxGeometry relative="1" as="geometry" />
        </mxCell>
        <mxCell id="SXOQJgNMga2pUW0CT-T7-34" value="Ввод:&lt;br&gt;&lt;div&gt;p&lt;/div&gt;" style="shape=parallelogram;perimeter=parallelogramPerimeter;whiteSpace=wrap;html=1;fixedSize=1;" vertex="1" parent="1">
          <mxGeometry x="410" y="650" width="100" height="50" as="geometry" />
        </mxCell>
        <mxCell id="SXOQJgNMga2pUW0CT-T7-35" style="edgeStyle=orthogonalEdgeStyle;rounded=0;orthogonalLoop=1;jettySize=auto;html=1;exitX=0.5;exitY=1;exitDx=0;exitDy=0;entryX=0.5;entryY=0;entryDx=0;entryDy=0;" edge="1" parent="1" source="SXOQJgNMga2pUW0CT-T7-36" target="SXOQJgNMga2pUW0CT-T7-37">
          <mxGeometry relative="1" as="geometry" />
        </mxCell>
        <mxCell id="SXOQJgNMga2pUW0CT-T7-36" value="Ввод:&lt;br&gt;&lt;div&gt;A,&lt;/div&gt;&lt;div&gt;TakeNumber,&lt;/div&gt;&lt;div&gt;p&lt;br&gt;&lt;/div&gt;" style="shape=parallelogram;perimeter=parallelogramPerimeter;whiteSpace=wrap;html=1;fixedSize=1;" vertex="1" parent="1">
          <mxGeometry x="410" y="720" width="100" height="60" as="geometry" />
        </mxCell>
        <mxCell id="SXOQJgNMga2pUW0CT-T7-52" style="edgeStyle=orthogonalEdgeStyle;rounded=0;orthogonalLoop=1;jettySize=auto;html=1;exitX=0.5;exitY=1;exitDx=0;exitDy=0;" edge="1" parent="1" source="SXOQJgNMga2pUW0CT-T7-37">
          <mxGeometry relative="1" as="geometry">
            <mxPoint x="600" y="870" as="targetPoint" />
            <Array as="points">
              <mxPoint x="460" y="870" />
            </Array>
          </mxGeometry>
        </mxCell>
        <mxCell id="SXOQJgNMga2pUW0CT-T7-37" value="AddAfter" style="shape=process;whiteSpace=wrap;html=1;backgroundOutline=1;" vertex="1" parent="1">
          <mxGeometry x="410" y="800" width="100" height="50" as="geometry" />
        </mxCell>
        <mxCell id="SXOQJgNMga2pUW0CT-T7-39" style="edgeStyle=orthogonalEdgeStyle;rounded=0;orthogonalLoop=1;jettySize=auto;html=1;exitX=0.5;exitY=1;exitDx=0;exitDy=0;entryX=0.5;entryY=0;entryDx=0;entryDy=0;" edge="1" parent="1" source="SXOQJgNMga2pUW0CT-T7-40" target="SXOQJgNMga2pUW0CT-T7-43">
          <mxGeometry relative="1" as="geometry" />
        </mxCell>
        <mxCell id="SXOQJgNMga2pUW0CT-T7-40" value="TakeNumber" style="shape=process;whiteSpace=wrap;html=1;backgroundOutline=1;" vertex="1" parent="1">
          <mxGeometry x="410" y="900" width="100" height="50" as="geometry" />
        </mxCell>
        <mxCell id="SXOQJgNMga2pUW0CT-T7-54" style="edgeStyle=orthogonalEdgeStyle;rounded=0;orthogonalLoop=1;jettySize=auto;html=1;exitX=0.5;exitY=1;exitDx=0;exitDy=0;" edge="1" parent="1" source="SXOQJgNMga2pUW0CT-T7-41">
          <mxGeometry relative="1" as="geometry">
            <mxPoint x="600" y="1110" as="targetPoint" />
            <Array as="points">
              <mxPoint x="460" y="1110" />
            </Array>
          </mxGeometry>
        </mxCell>
        <mxCell id="SXOQJgNMga2pUW0CT-T7-41" value="AddLast" style="shape=process;whiteSpace=wrap;html=1;backgroundOutline=1;" vertex="1" parent="1">
          <mxGeometry x="410" y="1040" width="100" height="50" as="geometry" />
        </mxCell>
        <mxCell id="SXOQJgNMga2pUW0CT-T7-42" style="edgeStyle=orthogonalEdgeStyle;rounded=0;orthogonalLoop=1;jettySize=auto;html=1;exitX=0.5;exitY=1;exitDx=0;exitDy=0;entryX=0.5;entryY=0;entryDx=0;entryDy=0;" edge="1" parent="1" source="SXOQJgNMga2pUW0CT-T7-43" target="SXOQJgNMga2pUW0CT-T7-41">
          <mxGeometry relative="1" as="geometry" />
        </mxCell>
        <mxCell id="SXOQJgNMga2pUW0CT-T7-43" value="Ввод:&lt;br&gt;&lt;div&gt;&lt;span style=&quot;background-color: initial;&quot;&gt;A,&lt;/span&gt;&lt;span style=&quot;background-color: initial;&quot;&gt;TakeNumber&lt;/span&gt;&lt;br&gt;&lt;/div&gt;" style="shape=parallelogram;perimeter=parallelogramPerimeter;whiteSpace=wrap;html=1;fixedSize=1;" vertex="1" parent="1">
          <mxGeometry x="410" y="970" width="100" height="50" as="geometry" />
        </mxCell>
        <mxCell id="SXOQJgNMga2pUW0CT-T7-47" style="edgeStyle=orthogonalEdgeStyle;rounded=0;orthogonalLoop=1;jettySize=auto;html=1;exitX=0.5;exitY=1;exitDx=0;exitDy=0;entryX=0.5;entryY=0;entryDx=0;entryDy=0;" edge="1" parent="1" source="SXOQJgNMga2pUW0CT-T7-45" target="SXOQJgNMga2pUW0CT-T7-46">
          <mxGeometry relative="1" as="geometry" />
        </mxCell>
        <mxCell id="SXOQJgNMga2pUW0CT-T7-45" value="Ввод:&lt;br&gt;&lt;div&gt;A&lt;/div&gt;" style="shape=parallelogram;perimeter=parallelogramPerimeter;whiteSpace=wrap;html=1;fixedSize=1;" vertex="1" parent="1">
          <mxGeometry x="410" y="1170" width="100" height="50" as="geometry" />
        </mxCell>
        <mxCell id="SXOQJgNMga2pUW0CT-T7-56" style="edgeStyle=orthogonalEdgeStyle;rounded=0;orthogonalLoop=1;jettySize=auto;html=1;exitX=0.5;exitY=1;exitDx=0;exitDy=0;entryX=0.5;entryY=0;entryDx=0;entryDy=0;" edge="1" parent="1" source="SXOQJgNMga2pUW0CT-T7-46" target="SXOQJgNMga2pUW0CT-T7-55">
          <mxGeometry relative="1" as="geometry" />
        </mxCell>
        <mxCell id="SXOQJgNMga2pUW0CT-T7-46" value="WriteAD" style="shape=process;whiteSpace=wrap;html=1;backgroundOutline=1;" vertex="1" parent="1">
          <mxGeometry x="410" y="1240" width="100" height="50" as="geometry" />
        </mxCell>
        <mxCell id="SXOQJgNMga2pUW0CT-T7-119" style="edgeStyle=orthogonalEdgeStyle;rounded=0;orthogonalLoop=1;jettySize=auto;html=1;exitX=0.5;exitY=1;exitDx=0;exitDy=0;" edge="1" parent="1" source="SXOQJgNMga2pUW0CT-T7-55">
          <mxGeometry relative="1" as="geometry">
            <mxPoint x="100" y="1380" as="targetPoint" />
            <Array as="points">
              <mxPoint x="460" y="1380" />
              <mxPoint x="101" y="1380" />
            </Array>
          </mxGeometry>
        </mxCell>
        <mxCell id="SXOQJgNMga2pUW0CT-T7-55" value="flag = false" style="rounded=0;whiteSpace=wrap;html=1;" vertex="1" parent="1">
          <mxGeometry x="410" y="1310" width="100" height="50" as="geometry" />
        </mxCell>
        <mxCell id="SXOQJgNMga2pUW0CT-T7-62" style="edgeStyle=orthogonalEdgeStyle;rounded=0;orthogonalLoop=1;jettySize=auto;html=1;exitX=0.5;exitY=1;exitDx=0;exitDy=0;entryX=0.5;entryY=0;entryDx=0;entryDy=0;" edge="1" parent="1" source="SXOQJgNMga2pUW0CT-T7-58" target="SXOQJgNMga2pUW0CT-T7-61">
          <mxGeometry relative="1" as="geometry" />
        </mxCell>
        <mxCell id="SXOQJgNMga2pUW0CT-T7-58" value="Ввод:&lt;br&gt;&lt;div&gt;p&lt;/div&gt;" style="shape=parallelogram;perimeter=parallelogramPerimeter;whiteSpace=wrap;html=1;fixedSize=1;" vertex="1" parent="1">
          <mxGeometry x="240" y="710" width="100" height="50" as="geometry" />
        </mxCell>
        <mxCell id="SXOQJgNMga2pUW0CT-T7-64" style="edgeStyle=orthogonalEdgeStyle;rounded=0;orthogonalLoop=1;jettySize=auto;html=1;exitX=0.5;exitY=1;exitDx=0;exitDy=0;entryX=0.5;entryY=0;entryDx=0;entryDy=0;" edge="1" parent="1" source="SXOQJgNMga2pUW0CT-T7-61" target="SXOQJgNMga2pUW0CT-T7-63">
          <mxGeometry relative="1" as="geometry" />
        </mxCell>
        <mxCell id="SXOQJgNMga2pUW0CT-T7-61" value="Ввод:&lt;br&gt;&lt;div&gt;A, p&lt;/div&gt;" style="shape=parallelogram;perimeter=parallelogramPerimeter;whiteSpace=wrap;html=1;fixedSize=1;" vertex="1" parent="1">
          <mxGeometry x="240" y="780" width="100" height="50" as="geometry" />
        </mxCell>
        <mxCell id="SXOQJgNMga2pUW0CT-T7-70" style="edgeStyle=orthogonalEdgeStyle;rounded=0;orthogonalLoop=1;jettySize=auto;html=1;exitX=0.5;exitY=1;exitDx=0;exitDy=0;entryX=0.5;entryY=0;entryDx=0;entryDy=0;" edge="1" parent="1" source="SXOQJgNMga2pUW0CT-T7-63" target="SXOQJgNMga2pUW0CT-T7-66">
          <mxGeometry relative="1" as="geometry" />
        </mxCell>
        <mxCell id="SXOQJgNMga2pUW0CT-T7-63" value="delete" style="shape=process;whiteSpace=wrap;html=1;backgroundOutline=1;" vertex="1" parent="1">
          <mxGeometry x="240" y="850" width="100" height="50" as="geometry" />
        </mxCell>
        <mxCell id="SXOQJgNMga2pUW0CT-T7-65" style="edgeStyle=orthogonalEdgeStyle;rounded=0;orthogonalLoop=1;jettySize=auto;html=1;exitX=0.5;exitY=1;exitDx=0;exitDy=0;entryX=0.5;entryY=0;entryDx=0;entryDy=0;" edge="1" parent="1" source="SXOQJgNMga2pUW0CT-T7-66" target="SXOQJgNMga2pUW0CT-T7-68">
          <mxGeometry relative="1" as="geometry" />
        </mxCell>
        <mxCell id="SXOQJgNMga2pUW0CT-T7-66" value="Ввод:&lt;br&gt;&lt;div&gt;A&lt;/div&gt;" style="shape=parallelogram;perimeter=parallelogramPerimeter;whiteSpace=wrap;html=1;fixedSize=1;" vertex="1" parent="1">
          <mxGeometry x="240" y="920" width="100" height="50" as="geometry" />
        </mxCell>
        <mxCell id="SXOQJgNMga2pUW0CT-T7-67" style="edgeStyle=orthogonalEdgeStyle;rounded=0;orthogonalLoop=1;jettySize=auto;html=1;exitX=0.5;exitY=1;exitDx=0;exitDy=0;entryX=0.5;entryY=0;entryDx=0;entryDy=0;" edge="1" parent="1" source="SXOQJgNMga2pUW0CT-T7-68" target="SXOQJgNMga2pUW0CT-T7-69">
          <mxGeometry relative="1" as="geometry" />
        </mxCell>
        <mxCell id="SXOQJgNMga2pUW0CT-T7-68" value="WriteAD" style="shape=process;whiteSpace=wrap;html=1;backgroundOutline=1;" vertex="1" parent="1">
          <mxGeometry x="240" y="990" width="100" height="50" as="geometry" />
        </mxCell>
        <mxCell id="SXOQJgNMga2pUW0CT-T7-106" style="edgeStyle=orthogonalEdgeStyle;rounded=0;orthogonalLoop=1;jettySize=auto;html=1;exitX=0.5;exitY=1;exitDx=0;exitDy=0;" edge="1" parent="1" source="SXOQJgNMga2pUW0CT-T7-69">
          <mxGeometry relative="1" as="geometry">
            <mxPoint x="290" y="1380" as="targetPoint" />
          </mxGeometry>
        </mxCell>
        <mxCell id="SXOQJgNMga2pUW0CT-T7-69" value="flag = false" style="rounded=0;whiteSpace=wrap;html=1;" vertex="1" parent="1">
          <mxGeometry x="240" y="1060" width="100" height="50" as="geometry" />
        </mxCell>
        <mxCell id="SXOQJgNMga2pUW0CT-T7-71" style="edgeStyle=orthogonalEdgeStyle;rounded=0;orthogonalLoop=1;jettySize=auto;html=1;exitX=0.5;exitY=1;exitDx=0;exitDy=0;entryX=0.5;entryY=0;entryDx=0;entryDy=0;" edge="1" parent="1" source="SXOQJgNMga2pUW0CT-T7-72" target="SXOQJgNMga2pUW0CT-T7-74">
          <mxGeometry relative="1" as="geometry" />
        </mxCell>
        <mxCell id="SXOQJgNMga2pUW0CT-T7-72" value="Ввод:&lt;br&gt;&lt;div&gt;A&lt;/div&gt;" style="shape=parallelogram;perimeter=parallelogramPerimeter;whiteSpace=wrap;html=1;fixedSize=1;" vertex="1" parent="1">
          <mxGeometry x="120" y="920" width="100" height="50" as="geometry" />
        </mxCell>
        <mxCell id="SXOQJgNMga2pUW0CT-T7-73" style="edgeStyle=orthogonalEdgeStyle;rounded=0;orthogonalLoop=1;jettySize=auto;html=1;exitX=0.5;exitY=1;exitDx=0;exitDy=0;entryX=0.5;entryY=0;entryDx=0;entryDy=0;" edge="1" parent="1" source="SXOQJgNMga2pUW0CT-T7-74" target="SXOQJgNMga2pUW0CT-T7-75">
          <mxGeometry relative="1" as="geometry" />
        </mxCell>
        <mxCell id="SXOQJgNMga2pUW0CT-T7-74" value="WriteAD" style="shape=process;whiteSpace=wrap;html=1;backgroundOutline=1;" vertex="1" parent="1">
          <mxGeometry x="120" y="990" width="100" height="50" as="geometry" />
        </mxCell>
        <mxCell id="SXOQJgNMga2pUW0CT-T7-107" style="edgeStyle=orthogonalEdgeStyle;rounded=0;orthogonalLoop=1;jettySize=auto;html=1;exitX=0.5;exitY=1;exitDx=0;exitDy=0;" edge="1" parent="1" source="SXOQJgNMga2pUW0CT-T7-75">
          <mxGeometry relative="1" as="geometry">
            <mxPoint x="170" y="1380" as="targetPoint" />
          </mxGeometry>
        </mxCell>
        <mxCell id="SXOQJgNMga2pUW0CT-T7-75" value="flag = false" style="rounded=0;whiteSpace=wrap;html=1;" vertex="1" parent="1">
          <mxGeometry x="120" y="1060" width="100" height="50" as="geometry" />
        </mxCell>
        <mxCell id="SXOQJgNMga2pUW0CT-T7-76" style="edgeStyle=orthogonalEdgeStyle;rounded=0;orthogonalLoop=1;jettySize=auto;html=1;exitX=0.5;exitY=1;exitDx=0;exitDy=0;entryX=0.5;entryY=0;entryDx=0;entryDy=0;" edge="1" parent="1" source="SXOQJgNMga2pUW0CT-T7-77" target="SXOQJgNMga2pUW0CT-T7-78">
          <mxGeometry relative="1" as="geometry" />
        </mxCell>
        <mxCell id="SXOQJgNMga2pUW0CT-T7-77" value="Ввод:&lt;br&gt;&lt;div&gt;A&lt;/div&gt;" style="shape=parallelogram;perimeter=parallelogramPerimeter;whiteSpace=wrap;html=1;fixedSize=1;" vertex="1" parent="1">
          <mxGeometry x="120" y="780" width="100" height="50" as="geometry" />
        </mxCell>
        <mxCell id="SXOQJgNMga2pUW0CT-T7-79" style="edgeStyle=orthogonalEdgeStyle;rounded=0;orthogonalLoop=1;jettySize=auto;html=1;exitX=0.5;exitY=1;exitDx=0;exitDy=0;entryX=0.5;entryY=0;entryDx=0;entryDy=0;" edge="1" parent="1" source="SXOQJgNMga2pUW0CT-T7-78" target="SXOQJgNMga2pUW0CT-T7-72">
          <mxGeometry relative="1" as="geometry" />
        </mxCell>
        <mxCell id="SXOQJgNMga2pUW0CT-T7-78" value="full" style="shape=process;whiteSpace=wrap;html=1;backgroundOutline=1;" vertex="1" parent="1">
          <mxGeometry x="120" y="850" width="100" height="50" as="geometry" />
        </mxCell>
        <mxCell id="SXOQJgNMga2pUW0CT-T7-90" value="1" style="text;html=1;align=center;verticalAlign=middle;whiteSpace=wrap;rounded=0;" vertex="1" parent="1">
          <mxGeometry x="105" y="600" width="15" height="30" as="geometry" />
        </mxCell>
        <mxCell id="SXOQJgNMga2pUW0CT-T7-91" value="2" style="text;html=1;align=center;verticalAlign=middle;whiteSpace=wrap;rounded=0;" vertex="1" parent="1">
          <mxGeometry x="105" y="650" width="15" height="30" as="geometry" />
        </mxCell>
        <mxCell id="SXOQJgNMga2pUW0CT-T7-92" value="3" style="text;html=1;align=center;verticalAlign=middle;whiteSpace=wrap;rounded=0;" vertex="1" parent="1">
          <mxGeometry x="105" y="730" width="15" height="30" as="geometry" />
        </mxCell>
        <mxCell id="SXOQJgNMga2pUW0CT-T7-93" value="1" style="text;html=1;align=center;verticalAlign=middle;whiteSpace=wrap;rounded=0;" vertex="1" parent="1">
          <mxGeometry x="360" y="120" width="15" height="20" as="geometry" />
        </mxCell>
        <mxCell id="SXOQJgNMga2pUW0CT-T7-96" value="2" style="text;html=1;align=center;verticalAlign=middle;whiteSpace=wrap;rounded=0;" vertex="1" parent="1">
          <mxGeometry x="360" y="350" width="15" height="30" as="geometry" />
        </mxCell>
        <mxCell id="SXOQJgNMga2pUW0CT-T7-97" value="3" style="text;html=1;align=center;verticalAlign=middle;whiteSpace=wrap;rounded=0;" vertex="1" parent="1">
          <mxGeometry x="360" y="600" width="15" height="30" as="geometry" />
        </mxCell>
        <mxCell id="SXOQJgNMga2pUW0CT-T7-98" value="4" style="text;html=1;align=center;verticalAlign=middle;whiteSpace=wrap;rounded=0;" vertex="1" parent="1">
          <mxGeometry x="360" y="850" width="15" height="30" as="geometry" />
        </mxCell>
        <mxCell id="SXOQJgNMga2pUW0CT-T7-109" style="edgeStyle=orthogonalEdgeStyle;rounded=0;orthogonalLoop=1;jettySize=auto;html=1;exitX=0.5;exitY=1;exitDx=0;exitDy=0;entryX=0.5;entryY=0;entryDx=0;entryDy=0;" edge="1" parent="1" source="SXOQJgNMga2pUW0CT-T7-100" target="SXOQJgNMga2pUW0CT-T7-108">
          <mxGeometry relative="1" as="geometry" />
        </mxCell>
        <mxCell id="SXOQJgNMga2pUW0CT-T7-111" style="edgeStyle=orthogonalEdgeStyle;rounded=0;orthogonalLoop=1;jettySize=auto;html=1;exitX=1;exitY=0.5;exitDx=0;exitDy=0;" edge="1" parent="1" source="SXOQJgNMga2pUW0CT-T7-100">
          <mxGeometry relative="1" as="geometry">
            <mxPoint x="100" y="370" as="targetPoint" />
            <Array as="points">
              <mxPoint x="620" y="1530" />
              <mxPoint x="620" y="20" />
              <mxPoint x="171" y="20" />
              <mxPoint x="171" y="370" />
            </Array>
          </mxGeometry>
        </mxCell>
        <mxCell id="SXOQJgNMga2pUW0CT-T7-100" value="flag = true" style="rhombus;whiteSpace=wrap;html=1;" vertex="1" parent="1">
          <mxGeometry x="47.5" y="1500" width="100" height="60" as="geometry" />
        </mxCell>
        <mxCell id="SXOQJgNMga2pUW0CT-T7-101" value="нет" style="text;html=1;strokeColor=none;fillColor=none;align=center;verticalAlign=middle;whiteSpace=wrap;rounded=0;" vertex="1" parent="1">
          <mxGeometry x="117.5" y="1500" width="60" height="30" as="geometry" />
        </mxCell>
        <mxCell id="SXOQJgNMga2pUW0CT-T7-102" value="да" style="text;html=1;strokeColor=none;fillColor=none;align=center;verticalAlign=middle;whiteSpace=wrap;rounded=0;" vertex="1" parent="1">
          <mxGeometry x="90" y="1550" width="60.5" height="30" as="geometry" />
        </mxCell>
        <mxCell id="SXOQJgNMga2pUW0CT-T7-108" value="конец" style="rounded=1;whiteSpace=wrap;html=1;arcSize=50;" vertex="1" parent="1">
          <mxGeometry x="47.5" y="1620" width="100" height="50" as="geometry" />
        </mxCell>
        <mxCell id="SXOQJgNMga2pUW0CT-T7-118" style="edgeStyle=orthogonalEdgeStyle;rounded=0;orthogonalLoop=1;jettySize=auto;html=1;exitX=0.5;exitY=1;exitDx=0;exitDy=0;entryX=0.5;entryY=0;entryDx=0;entryDy=0;" edge="1" parent="1" source="SXOQJgNMga2pUW0CT-T7-117" target="SXOQJgNMga2pUW0CT-T7-100">
          <mxGeometry relative="1" as="geometry" />
        </mxCell>
        <mxCell id="SXOQJgNMga2pUW0CT-T7-117" value="flag = false" style="rounded=0;whiteSpace=wrap;html=1;" vertex="1" parent="1">
          <mxGeometry x="47.5" y="1430" width="100" height="50" as="geometry" />
        </mxCell>
        <mxCell id="SXOQJgNMga2pUW0CT-T7-122" value="4" style="text;html=1;align=center;verticalAlign=middle;whiteSpace=wrap;rounded=0;" vertex="1" parent="1">
          <mxGeometry x="75" y="1080" width="15" height="30" as="geometry" />
        </mxCell>
      </root>
    </mxGraphModel>
  </diagram>
</mxfile>
